<svg width="78" height="80" viewBox="0 0 78 80" fill="none" xmlns="http://www.w3.org/2000/svg">
<path d="M77.75 40.1932C77.75 61.8028 60.3988 79.3168 39 79.3168C17.6012 79.3168 0.25 61.8028 0.25 40.1932C0.25 18.5836 17.6012 1.06958 39 1.06958C60.3988 1.06958 77.75 18.5836 77.75 40.1932Z" stroke="white" stroke-width="0.5"/>
<path fill-rule="evenodd" clip-rule="evenodd" d="M19 40.1931C19 39.8064 19.1505 39.4356 19.4184 39.1621C19.6863 38.8887 20.0496 38.7351 20.4285 38.7351H54.1206L45.1298 29.5608C44.8615 29.2871 44.7108 28.9157 44.7108 28.5285C44.7108 28.1413 44.8615 27.77 45.1298 27.4962C45.398 27.2224 45.7618 27.0686 46.1411 27.0686C46.5205 27.0686 46.8843 27.2224 47.1525 27.4962L58.5803 39.1608C58.7134 39.2963 58.8189 39.4572 58.8909 39.6343C58.9629 39.8114 59 40.0014 59 40.1931C59 40.3849 58.9629 40.5748 58.8909 40.752C58.8189 40.9291 58.7134 41.09 58.5803 41.2255L47.1525 52.8901C46.8843 53.1639 46.5205 53.3177 46.1411 53.3177C45.7618 53.3177 45.398 53.1639 45.1298 52.8901C44.8615 52.6163 44.7108 52.2449 44.7108 51.8578C44.7108 51.4706 44.8615 51.0992 45.1298 50.8254L54.1206 41.6512H20.4285C20.0496 41.6512 19.6863 41.4976 19.4184 41.2242C19.1505 40.9507 19 40.5798 19 40.1931Z" fill="white"/>
</svg>
