<svg width="111" height="23" viewBox="0 0 111 23" fill="none" xmlns="http://www.w3.org/2000/svg">
<path d="M7.36 22H0.064V20.624C0.618667 20.624 1.06667 20.5387 1.408 20.368C1.77067 20.1973 2.09067 19.888 2.368 19.44C2.66667 18.992 2.976 18.352 3.296 17.52L10.24 0.815998H13.6L20.512 17.584C20.9387 18.608 21.3867 19.376 21.856 19.888C22.3467 20.3787 22.9547 20.624 23.68 20.624V22H13.408V20.624C13.6853 20.624 13.9627 20.6133 14.24 20.592C14.5387 20.5493 14.784 20.4533 14.976 20.304C15.1893 20.1547 15.296 19.92 15.296 19.6C15.296 19.3653 15.232 19.0133 15.104 18.544C14.976 18.0747 14.8267 17.616 14.656 17.168L13.76 14.832L13.504 14L10.496 5.616H10.368L6.976 14L6.72 14.832L5.632 17.584C5.54667 17.8613 5.45067 18.1707 5.344 18.512C5.23733 18.8533 5.184 19.1627 5.184 19.44C5.184 19.952 5.344 20.2827 5.664 20.432C6.00533 20.56 6.57067 20.624 7.36 20.624V22ZM14.368 15.248H6.112L6.688 13.584H13.792L14.368 15.248ZM36.0008 22H25.0888V20.624C25.8994 20.624 26.5181 20.56 26.9448 20.432C27.3714 20.304 27.6594 20.0267 27.8088 19.6C27.9794 19.1733 28.0648 18.5227 28.0648 17.648V4.848C28.0648 4.208 27.9901 3.70667 27.8408 3.344C27.7128 2.98133 27.4354 2.72533 27.0088 2.576C26.5821 2.42667 25.9421 2.352 25.0888 2.352V0.976H35.5208C37.0141 0.976 38.3901 1.14667 39.6488 1.488C40.9288 1.808 41.9528 2.36267 42.7208 3.152C43.5101 3.92 43.9048 4.98667 43.9048 6.352C43.9048 7.52533 43.6701 8.47467 43.2008 9.2C42.7314 9.92533 42.1128 10.4907 41.3448 10.896C40.5768 11.3013 39.7448 11.6107 38.8488 11.824V11.984C39.1901 12.1973 39.5528 12.5493 39.9368 13.04C40.3208 13.5093 40.8434 14.2133 41.5048 15.152C42.1661 16.0907 43.0728 17.3707 44.2248 18.992C44.7154 19.696 45.2168 20.144 45.7288 20.336C46.2621 20.528 46.8914 20.624 47.6168 20.624V22H40.3528C39.6274 20.72 39.0301 19.664 38.5608 18.832C38.0914 18 37.6861 17.3173 37.3448 16.784C37.0248 16.2293 36.7261 15.728 36.4488 15.28C36.1928 14.832 35.9048 14.352 35.5848 13.84C35.3074 13.3493 35.0194 13.04 34.7208 12.912C34.4434 12.784 34.0274 12.72 33.4728 12.72H32.8328V17.68C32.8328 18.5333 32.9074 19.1733 33.0568 19.6C33.2061 20.0267 33.5048 20.304 33.9528 20.432C34.4008 20.56 35.0834 20.624 36.0008 20.624V22ZM32.8328 11.152L34.0488 11.184C35.1154 11.12 36.0114 10.9493 36.7368 10.672C37.4621 10.3947 38.0061 9.936 38.3688 9.296C38.7528 8.63467 38.9448 7.728 38.9448 6.576C38.9448 5.36 38.6141 4.38933 37.9528 3.664C37.3128 2.91733 36.2461 2.544 34.7528 2.544C34.4114 2.544 34.0808 2.55467 33.7608 2.576C33.4408 2.576 33.1314 2.59733 32.8328 2.64V11.152ZM62.3125 22H51.3365V20.624C52.2752 20.624 52.9578 20.56 53.3845 20.432C53.8325 20.2827 54.1205 19.9733 54.2485 19.504C54.3978 19.0347 54.4725 18.32 54.4725 17.36V2.768H53.0325C51.8592 2.768 50.9738 2.90667 50.3765 3.184C49.8005 3.46133 49.3845 3.93067 49.1285 4.592C48.8725 5.25333 48.6272 6.16 48.3925 7.312H46.7925L47.1445 0.976H66.6325L66.9205 7.312H65.3205C65.0858 6.16 64.8298 5.25333 64.5525 4.592C64.2965 3.93067 63.8805 3.46133 63.3045 3.184C62.7285 2.90667 61.8432 2.768 60.6485 2.768H59.2405V17.36C59.2405 18.32 59.3045 19.0347 59.4325 19.504C59.5818 19.9733 59.8698 20.2827 60.2965 20.432C60.7445 20.56 61.4165 20.624 62.3125 20.624V22ZM70.0943 22.416H68.7183L68.4303 15.504H70.0303C70.3716 16.8693 70.7449 17.9253 71.1503 18.672C71.5769 19.3973 72.0889 19.8987 72.6863 20.176C73.2836 20.4533 74.0089 20.592 74.8623 20.592C75.5449 20.592 76.1849 20.5067 76.7823 20.336C77.4009 20.144 77.9023 19.8453 78.2863 19.44C78.6703 19.0133 78.8623 18.448 78.8623 17.744C78.8623 16.8267 78.6383 16.08 78.1903 15.504C77.7423 14.9067 77.1556 14.4053 76.4303 14C75.7263 13.5733 74.9583 13.168 74.1263 12.784C73.1449 12.2933 72.2276 11.7813 71.3743 11.248C70.5209 10.6933 69.8383 10.0107 69.3263 9.2C68.8143 8.368 68.5583 7.30133 68.5583 6C68.5583 4.80533 68.8463 3.81333 69.4223 3.024C69.9983 2.23466 70.8196 1.63733 71.8863 1.232C72.9529 0.826665 74.2116 0.623999 75.6623 0.623999C76.4729 0.623999 77.1343 0.687998 77.6463 0.815998C78.1796 0.943999 78.6169 1.072 78.9583 1.2C79.2996 1.328 79.5983 1.392 79.8543 1.392C80.0463 1.392 80.2383 1.34933 80.4303 1.264C80.6223 1.15733 80.7503 0.943998 80.8143 0.623999H82.0303L82.2223 7.344H80.7183C80.2489 5.40267 79.6196 4.048 78.8303 3.28C78.0623 2.512 77.0809 2.128 75.8863 2.128C74.7556 2.128 73.9023 2.33066 73.3263 2.736C72.7503 3.14133 72.4623 3.77067 72.4623 4.624C72.4623 5.41333 72.6863 6.064 73.1343 6.576C73.5823 7.06667 74.1796 7.504 74.9263 7.888C75.6729 8.272 76.4729 8.66667 77.3263 9.072C78.0943 9.41333 78.8303 9.79733 79.5343 10.224C80.2596 10.6293 80.9103 11.1093 81.4863 11.664C82.0623 12.2187 82.5209 12.88 82.8623 13.648C83.2036 14.3947 83.3743 15.2693 83.3743 16.272C83.3743 17.5947 83.0329 18.7147 82.3503 19.632C81.6889 20.528 80.7503 21.2107 79.5343 21.68C78.3396 22.1493 76.9423 22.384 75.3423 22.384C74.3183 22.384 73.5289 22.2987 72.9743 22.128C72.4196 21.9787 71.9929 21.8293 71.6943 21.68C71.4169 21.5093 71.1609 21.424 70.9263 21.424C70.6916 21.424 70.4889 21.52 70.3183 21.712C70.1689 21.8827 70.0943 22.1173 70.0943 22.416ZM100.856 22H89.6878V20.624C90.6264 20.624 91.3198 20.5707 91.7678 20.464C92.2158 20.3573 92.5038 20.0907 92.6318 19.664C92.7811 19.2373 92.8558 18.5547 92.8558 17.616V14L88.5358 6.672C87.9384 5.648 87.4371 4.848 87.0318 4.272C86.6264 3.696 86.2638 3.26933 85.9438 2.992C85.6238 2.71467 85.3144 2.544 85.0158 2.48C84.7384 2.39467 84.4078 2.352 84.0237 2.352V0.976H93.9758V2.352C93.1224 2.352 92.5784 2.416 92.3438 2.544C92.1091 2.672 91.9918 2.85333 91.9918 3.088C91.9918 3.42933 92.1518 3.888 92.4718 4.464L95.1598 9.328L96.3758 11.92H96.5998L100.536 4.176C100.621 4.048 100.696 3.888 100.76 3.696C100.824 3.48267 100.856 3.30133 100.856 3.152C100.856 2.91733 100.749 2.72533 100.536 2.576C100.344 2.42667 99.8424 2.352 99.0318 2.352V0.976H106.296V2.352C105.698 2.37333 105.197 2.448 104.792 2.576C104.386 2.704 104.002 2.96 103.64 3.344C103.298 3.70667 102.893 4.29333 102.424 5.104L97.6238 14.032V17.616C97.6238 18.5333 97.7091 19.2053 97.8798 19.632C98.0718 20.0587 98.4024 20.336 98.8718 20.464C99.3411 20.5707 100.002 20.624 100.856 20.624V22ZM107.822 22.32C107.033 22.32 106.414 22.096 105.966 21.648C105.54 21.2 105.326 20.6133 105.326 19.888C105.326 19.1627 105.54 18.5867 105.966 18.16C106.414 17.712 107.044 17.488 107.854 17.488C108.665 17.488 109.273 17.712 109.678 18.16C110.105 18.5867 110.318 19.1627 110.318 19.888C110.318 20.6133 110.105 21.2 109.678 21.648C109.252 22.096 108.633 22.32 107.822 22.32Z" fill="#292929"/>
</svg>
