<svg width="58" height="60" viewBox="0 0 58 60" fill="none" xmlns="http://www.w3.org/2000/svg">
<path d="M0.514168 59.1833C2.31356 61.1333 9.72514 57.7327 15.5751 55.0059C19.9587 52.9687 37.5008 45.7712 46.2203 42.0376C48.5745 41.0309 51.9989 39.7151 54.4642 36.473C56.652 33.5876 62.4544 21.3327 50.7703 8.91932C38.9117 -3.68433 26.6965 -0.204457 22.1306 3.02969C19.4434 4.93213 17.2556 9.22054 16.2727 11.4004C12.119 20.6114 6.1977 37.4876 3.78795 44.1224C2.02027 49.0132 -1.26937 57.2492 0.514168 59.1833V59.1833Z" fill="#FFC107"/>
<path d="M15.0996 14.1748C15.2106 15.5541 15.488 17.7974 16.4392 22.1175C17.0892 25.0821 18.1514 28.1894 19.0154 30.2425C21.6075 36.4175 25.2459 38.9065 28.9319 40.9041C35.1941 44.2968 39.4508 44.9309 39.4508 44.9309L34.3459 47.0157C34.3459 47.0157 31.2545 46.3736 27.0374 44.2968C23.0185 42.315 18.8331 38.962 15.7734 32.3986C14.4496 29.5529 13.6807 26.7943 13.2368 24.6065C12.6898 21.8955 12.6026 20.3577 12.6026 20.3577L15.0996 14.1748V14.1748ZM8.82946 30.2504C8.82946 30.2504 9.46361 35.3949 13.7124 41.887C18.6904 49.4809 25.6423 50.7254 25.6423 50.7254L21.0209 52.6279C21.0209 52.6279 15.8606 51.0504 10.9539 44.3522C7.8941 40.1748 7.038 35.1809 7.038 35.1809L8.82946 30.2504V30.2504ZM4.43007 42.4419C4.43007 42.4419 5.58739 46.8809 8.12397 50.1943C11.1441 54.1498 14.9886 55.2992 14.9886 55.2992L11.4453 56.8687C11.4453 56.8687 8.75812 56.3059 5.81727 52.5803C3.5819 49.7504 2.94775 46.5004 2.94775 46.5004L4.43007 42.4419V42.4419Z" fill="#FF8F00"/>
<path opacity="0.44" d="M2.50416 53.7136C2.34562 53.3569 2.34562 52.9527 2.51209 52.6039L22.7017 10.7344L26.0231 23.2191L4.77916 53.9039C4.20843 54.76 2.92428 54.649 2.50416 53.7136V53.7136Z" fill="#FFFDE7"/>
<path d="M27.6244 27.4125C37.0573 38.4467 47.7982 37.0674 51.3732 34.2772C54.9561 31.479 57.786 21.8638 48.3927 11.0119C38.5475 -0.355144 27.4024 2.88693 24.8262 5.34425C22.25 7.80156 18.9683 17.29 27.6244 27.4125V27.4125Z" fill="url(#paint0_linear_25097_167)"/>
<defs>
<linearGradient id="paint0_linear_25097_167" x1="53.5721" y1="10.488" x2="29.9763" y2="24.6453" gradientUnits="userSpaceOnUse">
<stop offset="0.024" stop-color="#8F4700"/>
<stop offset="1" stop-color="#703E2D"/>
</linearGradient>
</defs>
</svg>
