<svg width="49" height="49" viewBox="0 0 49 49" fill="none" xmlns="http://www.w3.org/2000/svg">
<path d="M11.3299 12.9229C11.2253 12.8183 11.1424 12.6941 11.0857 12.5575C11.0291 12.4208 11 12.2743 11 12.1264C11 11.9785 11.0291 11.832 11.0857 11.6954C11.1424 11.5587 11.2253 11.4345 11.3299 11.3299C11.4345 11.2253 11.5587 11.1424 11.6954 11.0857C11.832 11.0291 11.9785 11 12.1264 11C12.2743 11 12.4208 11.0291 12.5575 11.0857C12.6941 11.1424 12.8183 11.2253 12.9229 11.3299L24.5014 22.9107L36.0799 11.3299C36.1845 11.2253 36.3087 11.1424 36.4454 11.0857C36.582 11.0291 36.7285 11 36.8764 11C37.0243 11 37.1708 11.0291 37.3075 11.0857C37.4441 11.1424 37.5683 11.2253 37.6729 11.3299C37.7775 11.4345 37.8605 11.5587 37.9171 11.6954C37.9737 11.832 38.0028 11.9785 38.0028 12.1264C38.0028 12.2743 37.9737 12.4208 37.9171 12.5575C37.8605 12.6941 37.7775 12.8183 37.6729 12.9229L26.0922 24.5014L37.6729 36.0799C37.7775 36.1845 37.8605 36.3087 37.9171 36.4454C37.9737 36.582 38.0028 36.7285 38.0028 36.8764C38.0028 37.0243 37.9737 37.1708 37.9171 37.3075C37.8605 37.4441 37.7775 37.5683 37.6729 37.6729C37.5683 37.7775 37.4441 37.8605 37.3075 37.9171C37.1708 37.9737 37.0243 38.0028 36.8764 38.0028C36.7285 38.0028 36.582 37.9737 36.4454 37.9171C36.3087 37.8605 36.1845 37.7775 36.0799 37.6729L24.5014 26.0922L12.9229 37.6729C12.8183 37.7775 12.6941 37.8605 12.5575 37.9171C12.4208 37.9737 12.2743 38.0028 12.1264 38.0028C11.9785 38.0028 11.832 37.9737 11.6954 37.9171C11.5587 37.8605 11.4345 37.7775 11.3299 37.6729C11.2253 37.5683 11.1424 37.4441 11.0857 37.3075C11.0291 37.1708 11 37.0243 11 36.8764C11 36.7285 11.0291 36.582 11.0857 36.4454C11.1424 36.3087 11.2253 36.1845 11.3299 36.0799L22.9107 24.5014L11.3299 12.9229Z" fill="white"/>
<circle cx="24.5" cy="24.5" r="24.5" fill="#B8B4B4" fill-opacity="0.49"/>
</svg>
