<svg width="44" height="51" viewBox="0 0 44 51" fill="none" xmlns="http://www.w3.org/2000/svg">
<path d="M35.4513 24.8003L22.8988 8.8078C22.792 8.67127 22.6556 8.56085 22.4999 8.48491C22.3442 8.40897 22.1733 8.36951 22.0001 8.36951C21.8269 8.36951 21.656 8.40897 21.5003 8.48491C21.3446 8.56085 21.2082 8.67127 21.1015 8.8078L8.54895 24.8003C8.38916 24.9984 8.302 25.2453 8.302 25.4999C8.302 25.7546 8.38916 26.0015 8.54895 26.1996L21.1015 42.1921C21.2082 42.3286 21.3446 42.439 21.5003 42.515C21.656 42.5909 21.8269 42.6304 22.0001 42.6304C22.1733 42.6304 22.3442 42.5909 22.4999 42.515C22.6556 42.439 22.792 42.3286 22.8988 42.1921L35.4513 26.1996C35.6111 26.0015 35.6982 25.7546 35.6982 25.4999C35.6982 25.2453 35.6111 24.9984 35.4513 24.8003ZM23.1413 29.4409V12.8059L32.7553 25.0573L23.1413 29.4409ZM20.859 29.4409L11.2449 25.0573L20.859 12.8059V29.4409ZM20.859 31.954V38.194L13.2419 28.4843L20.859 31.954Z" fill="#333333"/>
</svg>
