<svg width="66" height="57" viewBox="0 0 66 57" fill="none" xmlns="http://www.w3.org/2000/svg">
<rect x="0.5" y="0.5" width="65" height="56" rx="3.5" stroke="#161616"/>
<path d="M38.575 16C36.226 16 33.9715 17.1035 32.5 18.8474C31.0285 17.1035 28.774 16 26.425 16C22.267 16 19 19.297 19 23.4932C19 28.6431 23.59 32.8392 30.5425 39.2153L32.5 41L34.4575 39.2016C41.41 32.8392 46 28.6431 46 23.4932C46 19.297 42.733 16 38.575 16ZM32.635 37.1853L32.5 37.3215L32.365 37.1853C25.939 31.3133 21.7 27.4305 21.7 23.4932C21.7 20.7684 23.725 18.7248 26.425 18.7248C28.504 18.7248 30.529 20.0736 31.2445 21.9401H33.769C34.471 20.0736 36.496 18.7248 38.575 18.7248C41.275 18.7248 43.3 20.7684 43.3 23.4932C43.3 27.4305 39.061 31.3133 32.635 37.1853Z" fill="#292929"/>
</svg>
