<?xml version="1.0" standalone="no"?>
<!DOCTYPE svg PUBLIC "-//W3C//DTD SVG 20010904//EN"
 "http://www.w3.org/TR/2001/REC-SVG-20010904/DTD/svg10.dtd">
<svg version="1.0" xmlns="http://www.w3.org/2000/svg"
 width="368.000000pt" height="240.000000pt" viewBox="0 0 368.000000 240.000000"
 preserveAspectRatio="xMidYMid meet">

<g transform="translate(0.000000,240.000000) scale(0.100000,-0.100000)"
fill="#000000" stroke="none">
<path d="M0 1200 l0 -1200 1060 0 1060 0 -10 25 c-8 20 -5 29 15 51 23 25 24
28 7 40 -14 11 12 13 168 13 174 1 642 -10 1153 -25 l227 -7 0 110 0 110 -353
7 c-193 3 -512 11 -707 17 -329 10 -356 13 -368 30 -7 11 -24 19 -36 19 -26 0
-50 22 -38 34 4 4 7 13 7 19 0 6 10 16 22 23 13 6 20 14 15 19 -7 8 869 0
1246 -12 l212 -6 0 111 0 112 -102 0 c-304 2 -1251 29 -1258 36 -5 5 -10 38
-12 73 l-3 64 470 -6 c259 -4 568 -10 688 -14 l217 -6 0 111 c0 108 -1 112
-22 116 -13 3 -273 7 -578 11 -558 5 -714 11 -705 26 3 4 2 10 -3 13 -10 6 -3
76 8 76 4 0 10 9 13 21 l6 21 513 -6 c282 -3 570 -9 641 -12 l127 -6 0 114 0
115 -302 6 c-166 4 -392 7 -502 7 -111 0 -225 3 -255 7 l-54 6 74 68 74 68
483 -6 482 -6 0 116 0 117 -372 1 c-205 0 -412 4 -460 7 l-87 7 -46 -52 c-32
-37 -54 -53 -71 -53 -13 0 -24 -5 -24 -12 0 -6 -15 -24 -32 -38 -29 -25 -31
-29 -18 -45 17 -20 70 -15 138 15 30 14 49 17 61 11 14 -9 14 -10 -4 -17 -11
-4 -31 -16 -44 -26 -13 -10 -34 -18 -47 -18 -12 0 -26 -4 -29 -10 -5 -9 -32
-22 -92 -46 -12 -5 -47 -33 -77 -62 -60 -58 -99 -141 -130 -276 -9 -38 -25
-89 -36 -114 -11 -24 -20 -49 -20 -55 0 -27 -123 -317 -143 -335 -27 -26 -88
-52 -120 -52 -14 0 -82 29 -153 63 -71 35 -168 79 -216 97 -49 18 -96 40 -106
49 -9 9 -39 33 -65 54 -26 21 -47 44 -47 51 0 7 -16 31 -36 54 -20 24 -43 57
-52 76 -38 75 -99 123 -212 166 -19 7 -55 27 -80 44 -36 24 -55 30 -93 29 -43
-1 -49 2 -58 24 -16 42 36 114 106 147 19 9 37 21 41 27 14 23 54 29 95 13 22
-9 42 -14 46 -11 9 10 -48 57 -81 66 l-31 9 31 1 c17 1 53 -6 80 -14 27 -8 66
-15 87 -15 41 0 44 -7 21 -52 l-16 -30 84 -88 c46 -48 123 -131 173 -186 49
-54 123 -128 165 -164 41 -36 106 -95 145 -131 62 -59 102 -89 119 -89 3 0 18
24 32 53 15 28 47 83 71 121 53 81 73 130 108 262 15 55 42 128 60 164 48 93
70 176 56 207 -6 13 -11 25 -11 27 0 2 20 10 45 17 41 12 47 18 56 54 14 51
36 94 62 123 11 12 22 32 24 43 5 32 21 57 42 64 11 3 22 14 24 23 3 12 5 11
6 -5 l1 -23 218 0 c120 0 375 -3 565 -7 l347 -6 0 116 0 117 -347 1 c-192 1
-397 4 -457 8 -98 5 -108 8 -94 21 8 9 20 26 27 38 7 13 23 27 37 32 13 5 24
13 23 17 -6 35 -9 35 406 31 l405 -3 0 33 0 32 -431 0 -431 0 -76 -62 c-42
-35 -107 -91 -144 -125 -40 -36 -86 -68 -113 -77 -25 -9 -66 -24 -91 -33 -26
-9 -69 -34 -96 -55 -27 -22 -69 -48 -94 -58 -46 -20 -132 -29 -152 -16 -21 13
-13 56 19 95 16 21 31 50 33 65 1 15 15 40 31 56 26 28 27 29 5 23 -15 -4 -21
-2 -16 5 3 6 -5 22 -19 36 -14 14 -25 37 -25 51 0 16 -6 25 -15 25 -8 0 -15 5
-15 10 0 11 175 12 224 1 l30 -6 -32 -27 c-18 -15 -32 -30 -32 -34 0 -7 74 51
125 98 l30 28 -1197 0 -1198 0 0 -1200z m132 1131 c-1 -7 2 -10 8 -6 6 3 8 11
5 16 -4 5 178 9 468 9 530 0 513 2 452 -67 -19 -21 -42 -47 -51 -57 -17 -20
-47 -20 -734 -1 -77 3 -76 2 -88 29 -8 19 -18 24 -41 22 -17 -1 -31 1 -31 5 0
4 -11 10 -25 13 -30 8 -34 26 -6 26 24 0 36 16 19 24 -7 3 -4 4 7 3 11 -2 19
-9 17 -16z m1379 -228 c12 -16 12 -17 -1 -7 -8 6 -22 14 -30 17 -13 5 -12 6 1
6 9 1 23 -7 30 -16z m447 -31 c3 -22 -12 -30 -23 -12 -12 19 -65 11 -90 -15
-30 -29 -31 -44 -5 -95 26 -51 37 -56 65 -30 l23 21 27 -58 c14 -32 29 -69 31
-83 5 -24 4 -25 -40 -22 -44 4 -63 -9 -31 -22 37 -14 2 -56 -47 -56 -13 0 -36
-11 -51 -25 -26 -25 -26 -27 -11 -50 9 -13 25 -27 35 -30 27 -9 20 -39 -9 -43
-17 -3 -46 19 -115 85 -52 48 -108 101 -125 116 -33 29 -35 40 -32 127 1 41 0
43 -13 26 -17 -23 -45 -11 -81 37 -31 41 -40 76 -27 110 12 31 28 35 46 10 11
-14 10 -19 -4 -29 -12 -10 -13 -15 -4 -25 6 -6 9 -18 6 -25 -3 -8 1 -14 9 -14
7 0 22 -10 33 -22 18 -21 20 -22 23 -4 2 10 -1 23 -7 29 -6 6 -11 18 -11 26 0
11 4 10 20 -4 11 -10 22 -26 25 -36 3 -10 20 -21 38 -25 18 -3 60 -29 95 -56
65 -51 103 -57 60 -9 -14 14 -39 45 -57 69 l-33 43 16 44 c10 24 26 47 36 50
10 3 57 7 105 9 47 2 89 6 92 10 12 12 28 0 31 -22z m-73 -82 c-3 -5 -13 -10
-21 -10 -8 0 -14 5 -14 10 0 6 9 10 21 10 11 0 17 -4 14 -10z m-1057 -7 c-10
-2 -18 -8 -18 -12 0 -15 -60 -71 -77 -71 -24 0 -47 -16 -40 -26 7 -12 -18 -13
-243 -13 -278 1 -263 0 -271 29 l-7 25 -1 -27 c-1 -28 -14 -37 -26 -17 -4 6
-13 8 -21 5 -8 -3 -14 1 -14 10 0 8 -7 22 -15 30 -8 9 -15 22 -15 30 0 8 7 14
15 14 8 0 14 3 14 8 -1 4 -1 10 0 14 0 4 166 7 369 6 202 0 359 -2 350 -5z
m1470 -260 c-24 -48 -48 -67 -48 -38 0 19 26 73 49 99 27 30 26 -6 -1 -61z
m-2125 -100 c-7 -2 -19 -2 -25 0 -7 3 -2 5 12 5 14 0 19 -2 13 -5z m100 0 c-7
-2 -21 -2 -30 0 -10 3 -4 5 12 5 17 0 24 -2 18 -5z m177 3 c0 -2 -13 -6 -30
-8 -16 -3 -30 -1 -30 4 0 4 14 8 30 8 17 0 30 -2 30 -4z m93 -3 c-7 -2 -19 -2
-25 0 -7 3 -2 5 12 5 14 0 19 -2 13 -5z m153 -754 c14 -15 15 -20 4 -17 -16 3
-30 18 -30 31 0 11 6 8 26 -14z m221 -257 c24 -9 43 -20 43 -24 0 -5 11 -8 25
-8 15 0 38 -14 59 -36 30 -30 34 -41 29 -68 -14 -77 -83 -147 -213 -214 -52
-28 -140 -75 -195 -106 -55 -31 -106 -56 -112 -56 -13 0 -18 25 -14 70 3 31
-2 28 61 40 30 6 71 18 92 28 39 17 39 17 32 62 -8 54 -5 182 4 192 4 3 16 8
27 10 17 3 19 10 17 53 -2 28 -6 59 -9 69 -5 18 -1 19 53 12 33 -3 78 -14 101
-24z"/>
<path d="M133 1913 c-19 -7 -16 -20 7 -26 21 -5 25 0 12 19 -4 6 -13 9 -19 7z"/>
<path d="M2520 1934 c-6 -16 -13 -36 -17 -44 -20 -48 -26 -99 -13 -116 12 -13
17 -11 46 17 28 27 36 30 49 19 22 -18 19 -30 -17 -68 -42 -44 -23 -38 43 13
90 69 118 99 123 129 5 28 3 27 -50 -27 -54 -55 -76 -63 -88 -30 -4 9 -1 22 5
29 17 20 -2 17 -31 -6 -26 -21 -70 -27 -70 -10 0 5 9 33 20 62 11 28 18 54 15
56 -2 3 -9 -8 -15 -24z"/>
<path d="M2644 1894 c-18 -14 -18 -15 4 -4 12 6 22 13 22 15 0 8 -5 6 -26 -11z"/>
</g>
</svg>
