<svg width="20" height="27" viewBox="0 0 20 27" fill="none" xmlns="http://www.w3.org/2000/svg">
<path d="M18.3333 11.8125H16.6667V6.75C16.6667 3.0375 13.6667 0 10 0C6.33333 0 3.33333 3.0375 3.33333 6.75V11.8125H1.66667C0.833333 11.8125 0 12.6562 0 13.5V25.3125C0 26.1562 0.833333 27 1.66667 27H18.3333C19.1667 27 20 26.1562 20 25.3125V13.5C20 12.6562 19.1667 11.8125 18.3333 11.8125ZM11.6667 23.625H8.33333L9 19.9125C8.16667 19.575 7.5 18.5625 7.5 17.7188C7.5 16.3687 8.66667 15.1875 10 15.1875C11.3333 15.1875 12.5 16.3687 12.5 17.7188C12.5 18.7313 12 19.575 11 19.9125L11.6667 23.625ZM13.3333 11.8125H6.66667V6.75C6.66667 4.89375 8.16667 3.375 10 3.375C11.8333 3.375 13.3333 4.89375 13.3333 6.75V11.8125Z" fill="#747474"/>
</svg>
