<svg width="54" height="51" viewBox="0 0 54 51" fill="none" xmlns="http://www.w3.org/2000/svg">
<path d="M43.6074 10.3762C43.416 10.2027 43.1742 10.0825 42.9104 10.0299C42.6465 9.97729 42.3717 9.99435 42.1182 10.0791L10.9153 20.4119C10.6462 20.5048 10.4145 20.6701 10.251 20.8858C10.0876 21.1016 10 21.3574 10 21.6195C10 21.8816 10.0876 22.1375 10.251 22.3532C10.4145 22.5689 10.6462 22.7342 10.9153 22.8272L23.0986 27.2574L32.0907 19.0428L34.0905 20.864L25.0559 29.0914L29.9349 40.1863C30.04 40.4266 30.2219 40.6327 30.4571 40.7777C30.6923 40.9228 30.9699 41.0002 31.2539 41C31.5405 40.9946 31.8186 40.9103 32.0516 40.7581C32.2845 40.606 32.4613 40.3931 32.5588 40.1475L43.9053 11.7323C44.0019 11.5038 44.0252 11.255 43.9725 11.0149C43.9197 10.7748 43.7931 10.5532 43.6074 10.3762Z" fill="#292929"/>
</svg>
