<svg width="59" height="59" viewBox="0 0 59 59" fill="none" xmlns="http://www.w3.org/2000/svg">
<circle cx="29.5" cy="29.5" r="29" stroke="#616161"/>
<path d="M23.3392 30.5015L35.5109 42.1171C35.714 42.311 35.9838 42.4192 36.2644 42.4192C36.5449 42.4192 36.8148 42.311 37.0179 42.1171L37.031 42.104C37.1298 42.01 37.2084 41.8968 37.2622 41.7714C37.3159 41.646 37.3437 41.5109 37.3437 41.3744C37.3437 41.238 37.3159 41.1029 37.2622 40.9775C37.2084 40.8521 37.1298 40.7389 37.031 40.6449L25.5691 29.7074L37.031 18.7743C37.1298 18.6803 37.2084 18.5671 37.2622 18.4417C37.3159 18.3163 37.3437 18.1812 37.3437 18.0448C37.3437 17.9083 37.3159 17.7732 37.2622 17.6478C37.2084 17.5224 37.1298 17.4092 37.031 17.3152L37.0179 17.3021C36.8148 17.1082 36.5449 17 36.2644 17C35.9838 17 35.714 17.1082 35.5109 17.3021L23.3392 28.9177C23.2322 29.0199 23.147 29.1427 23.0887 29.2789C23.0305 29.415 23.0005 29.5615 23.0005 29.7096C23.0005 29.8577 23.0305 30.0042 23.0887 30.1404C23.147 30.2765 23.2322 30.3993 23.3392 30.5015Z" fill="#616161"/>
</svg>
