<svg width="59" height="59" viewBox="0 0 59 59" fill="none" xmlns="http://www.w3.org/2000/svg">
<circle cx="29.5" cy="29.5" r="29" stroke="#333333"/>
<path d="M37.0045 28.9177L24.8329 17.3021C24.6298 17.1082 24.36 17 24.0794 17C23.7988 17 23.529 17.1082 23.3259 17.3021L23.3128 17.3152C23.214 17.4092 23.1353 17.5224 23.0816 17.6478C23.0278 17.7732 23.0001 17.9083 23.0001 18.0447C23.0001 18.1812 23.0278 18.3163 23.0816 18.4417C23.1353 18.5671 23.214 18.6803 23.3128 18.7743L34.7746 29.7118L23.3128 40.6449C23.214 40.7389 23.1353 40.8521 23.0816 40.9775C23.0278 41.1029 23.0001 41.2379 23.0001 41.3744C23.0001 41.5109 23.0278 41.646 23.0816 41.7714C23.1353 41.8968 23.214 42.01 23.3128 42.104L23.3259 42.1171C23.529 42.311 23.7988 42.4192 24.0794 42.4192C24.36 42.4192 24.6298 42.311 24.8329 42.1171L37.0045 30.5015C37.1116 30.3993 37.1968 30.2765 37.255 30.1403C37.3132 30.0042 37.3433 29.8577 37.3433 29.7096C37.3433 29.5615 37.3132 29.415 37.255 29.2788C37.1968 29.1427 37.1116 29.0199 37.0045 28.9177Z" fill="#333333"/>
</svg>
